<svg width="127" height="127" viewBox="0 0 127 127" fill="none" xmlns="http://www.w3.org/2000/svg">
<circle cx="63.5" cy="63.5" r="63.5" fill="white"/>
<path fill-rule="evenodd" clip-rule="evenodd" d="M104.905 111.646C93.7879 121.215 79.3195 127 63.5 127C47.561 127 32.9935 121.127 21.8434 111.428C22.9351 92.5836 38.3612 74.2354 63.2746 74.1895C63.3057 74.1896 63.3369 74.1896 63.368 74.1896C63.3992 74.1896 63.4304 74.1896 63.4616 74.1895C88.4711 74.2354 103.92 92.725 104.905 111.646ZM113.29 102.915C109.787 87.8049 98.9442 74.168 82.71 68.0418C91.268 61.9758 96.8534 51.9923 96.8534 40.7042C96.8534 22.2107 81.8615 7.21875 63.368 7.21875C44.8745 7.21875 29.8826 22.2107 29.8826 40.7042C29.8826 51.9924 35.4682 61.976 44.0262 68.0419C27.8845 74.1334 17.0725 87.6502 13.5072 102.658C5.04541 91.8695 0 78.274 0 63.5C0 28.4299 28.4299 0 63.5 0C98.5701 0 127 28.4299 127 63.5C127 78.3917 121.874 92.0862 113.29 102.915ZM63.2817 64.627C50.1091 64.5805 39.4451 53.8877 39.4451 40.7042C39.4451 27.4919 50.1557 16.7812 63.368 16.7812C76.5803 16.7812 87.2909 27.4919 87.2909 40.7042C87.2909 53.8876 76.627 64.5804 63.4544 64.627C63.4257 64.6269 63.397 64.6269 63.3683 64.6269C63.3394 64.6269 63.3106 64.6269 63.2817 64.627Z" fill="#FFA5AF"/>
</svg>
