<svg width="78" height="78" viewBox="0 0 78 78" fill="none" xmlns="http://www.w3.org/2000/svg">
<circle cx="39" cy="39" r="39" fill="white"/>
<path d="M39.0039 25.7422L24.5508 40.1836H28.3008V52.9063H34.3125V44C34.3125 43.1367 35.0117 42.4375 35.875 42.4375H42.125C42.9883 42.4375 43.6875 43.1367 43.6875 44V52.9063H49.6992V40.1836H53.4531L39.9063 26.6445L39.0039 25.7422ZM55.9766 42.2617C55.7422 42.4961 55.4648 42.6836 55.1641 42.8047C55.4648 42.6797 55.7422 42.4961 55.9766 42.2617ZM21.3281 40.9063C21.5234 42.0898 22.5547 42.9961 23.793 42.9961H23.8281C22.582 42.9961 21.5273 42.0977 21.3281 40.9063ZM21.2969 40.3945C21.3008 40.2734 21.3164 40.1563 21.3359 40.0391C21.3125 40.1523 21.3008 40.2734 21.2969 40.3945Z" fill="#FFA5AF"/>
<path d="M56.1484 38.9219C56.1484 38.918 56.1445 38.918 56.1445 38.9141L56.0742 38.832C56.0703 38.8281 56.0664 38.8203 56.0586 38.8164C56.0313 38.7852 56 38.7539 55.9727 38.7227L40.8789 23.6406L39.8672 22.6289C39.6367 22.3999 39.3249 22.2714 39 22.2714C38.6751 22.2714 38.3633 22.3999 38.1328 22.6289L22.0273 38.7266C21.7364 39.016 21.5217 39.373 21.4023 39.7656L21.3789 39.8477L21.3672 39.8906L21.3555 39.9375C21.3477 39.9648 21.3438 39.9922 21.3398 40.0195C21.3398 40.0234 21.3398 40.0312 21.3359 40.0352C21.3125 40.1523 21.3008 40.2695 21.2969 40.3906V40.5195C21.2969 40.5391 21.2969 40.5586 21.3008 40.5781C21.3008 40.5977 21.3008 40.6133 21.3047 40.6328C21.3047 40.6523 21.3086 40.6719 21.3086 40.6914C21.3086 40.7148 21.3125 40.7383 21.3164 40.7617C21.3164 40.7734 21.3203 40.7852 21.3203 40.7969L21.332 40.8945V40.8984C21.5313 42.0898 22.5898 42.9883 23.832 42.9883H25.4922V55.7187H52.5117V42.9961H54.207C54.543 42.9961 54.8672 42.9297 55.1641 42.8047C55.4609 42.6797 55.7383 42.4961 55.9766 42.2617C56.2093 42.0297 56.3937 41.7539 56.5191 41.4501C56.6445 41.1464 56.7084 40.8208 56.707 40.4922C56.707 39.918 56.5117 39.3672 56.1484 38.9219ZM41.1875 52.9062H36.8125V44.9375H41.1875V52.9062ZM49.6992 40.1836V52.9062H43.6875V44C43.6875 43.1367 42.9883 42.4375 42.125 42.4375H35.875C35.0117 42.4375 34.3125 43.1367 34.3125 44V52.9062H28.3008V40.1836H24.5508L39.0039 25.7422L39.9063 26.6445L53.4531 40.1836H49.6992Z" fill="#111111"/>
</svg>
