<svg width="40" height="40" viewBox="0 0 40 40" fill="none" xmlns="http://www.w3.org/2000/svg">
<g clip-path="url(#clip0_152_357)">
<path d="M9.16659 28.25C9.85173 28.25 10.5088 28.5222 10.9933 29.0066C11.4777 29.4911 11.7499 30.1482 11.7499 30.8333C11.7499 31.5185 11.4777 32.1756 10.9933 32.66C10.5088 33.1445 9.85173 33.4167 9.16659 33.4167C8.48144 33.4167 7.82436 33.1445 7.33989 32.66C6.85542 32.1756 6.58325 31.5185 6.58325 30.8333C6.58325 30.1482 6.85542 29.4911 7.33989 29.0066C7.82436 28.5222 8.48144 28.25 9.16659 28.25ZM19.9999 28.25C20.6851 28.25 21.3421 28.5222 21.8266 29.0066C22.3111 29.4911 22.5833 30.1482 22.5833 30.8333C22.5833 31.5185 22.3111 32.1756 21.8266 32.66C21.3421 33.1445 20.6851 33.4167 19.9999 33.4167C19.3148 33.4167 18.6577 33.1445 18.1732 32.66C17.6888 32.1756 17.4166 31.5185 17.4166 30.8333C17.4166 30.1482 17.6888 29.4911 18.1732 29.0066C18.6577 28.5222 19.3148 28.25 19.9999 28.25ZM30.8333 28.25C31.5184 28.25 32.1755 28.5222 32.6599 29.0066C33.1444 29.4911 33.4166 30.1482 33.4166 30.8333C33.4166 31.5185 33.1444 32.1756 32.6599 32.66C32.1755 33.1445 31.5184 33.4167 30.8333 33.4167C30.1481 33.4167 29.491 33.1445 29.0066 32.66C28.5221 32.1756 28.2499 31.5185 28.2499 30.8333C28.2499 30.1482 28.5221 29.4911 29.0066 29.0066C29.491 28.5222 30.1481 28.25 30.8333 28.25ZM9.16659 17.4167C9.85173 17.4167 10.5088 17.6888 10.9933 18.1733C11.4777 18.6578 11.7499 19.3149 11.7499 20C11.7499 20.6851 11.4777 21.3422 10.9933 21.8267C10.5088 22.3112 9.85173 22.5833 9.16659 22.5833C8.48144 22.5833 7.82436 22.3112 7.33989 21.8267C6.85542 21.3422 6.58325 20.6851 6.58325 20C6.58325 19.3149 6.85542 18.6578 7.33989 18.1733C7.82436 17.6888 8.48144 17.4167 9.16659 17.4167ZM19.9999 17.4167C20.6851 17.4167 21.3421 17.6888 21.8266 18.1733C22.3111 18.6578 22.5833 19.3149 22.5833 20C22.5833 20.6851 22.3111 21.3422 21.8266 21.8267C21.3421 22.3112 20.6851 22.5833 19.9999 22.5833C19.3148 22.5833 18.6577 22.3112 18.1732 21.8267C17.6888 21.3422 17.4166 20.6851 17.4166 20C17.4166 19.3149 17.6888 18.6578 18.1732 18.1733C18.6577 17.6888 19.3148 17.4167 19.9999 17.4167ZM30.8333 17.4167C31.5184 17.4167 32.1755 17.6888 32.6599 18.1733C33.1444 18.6578 33.4166 19.3149 33.4166 20C33.4166 20.6851 33.1444 21.3422 32.6599 21.8267C32.1755 22.3112 31.5184 22.5833 30.8333 22.5833C30.1481 22.5833 29.491 22.3112 29.0066 21.8267C28.5221 21.3422 28.2499 20.6851 28.2499 20C28.2499 19.3149 28.5221 18.6578 29.0066 18.1733C29.491 17.6888 30.1481 17.4167 30.8333 17.4167ZM9.16659 6.58333C9.85173 6.58333 10.5088 6.8555 10.9933 7.33997C11.4777 7.82444 11.7499 8.48152 11.7499 9.16667C11.7499 9.85181 11.4777 10.5089 10.9933 10.9934C10.5088 11.4778 9.85173 11.75 9.16659 11.75C8.48144 11.75 7.82436 11.4778 7.33989 10.9934C6.85542 10.5089 6.58325 9.85181 6.58325 9.16667C6.58325 8.48152 6.85542 7.82444 7.33989 7.33997C7.82436 6.8555 8.48144 6.58333 9.16659 6.58333ZM19.9999 6.58333C20.6851 6.58333 21.3421 6.8555 21.8266 7.33997C22.3111 7.82444 22.5833 8.48152 22.5833 9.16667C22.5833 9.85181 22.3111 10.5089 21.8266 10.9934C21.3421 11.4778 20.6851 11.75 19.9999 11.75C19.3148 11.75 18.6577 11.4778 18.1732 10.9934C17.6888 10.5089 17.4166 9.85181 17.4166 9.16667C17.4166 8.48152 17.6888 7.82444 18.1732 7.33997C18.6577 6.8555 19.3148 6.58333 19.9999 6.58333ZM30.8333 6.58333C31.5184 6.58333 32.1755 6.8555 32.6599 7.33997C33.1444 7.82444 33.4166 8.48152 33.4166 9.16667C33.4166 9.85181 33.1444 10.5089 32.6599 10.9934C32.1755 11.4778 31.5184 11.75 30.8333 11.75C30.1481 11.75 29.491 11.4778 29.0066 10.9934C28.5221 10.5089 28.2499 9.85181 28.2499 9.16667C28.2499 8.48152 28.5221 7.82444 29.0066 7.33997C29.491 6.8555 30.1481 6.58333 30.8333 6.58333Z" fill="#FFA5AF" stroke="black" stroke-width="1.5"/>
</g>
<defs>
<clipPath id="clip0_152_357">
<rect width="40" height="40" fill="white"/>
</clipPath>
</defs>
</svg>
