<svg width="78" height="78" viewBox="0 0 78 78" fill="none" xmlns="http://www.w3.org/2000/svg">
<circle cx="39" cy="39" r="39" fill="white"/>
<g clip-path="url(#clip0_35_1376)">
<path d="M27.8541 48.3125C28.6055 48.3125 29.3262 48.611 29.8576 49.1424C30.3889 49.6737 30.6874 50.3944 30.6874 51.1458C30.6874 51.8973 30.3889 52.6179 29.8576 53.1493C29.3262 53.6807 28.6055 53.9792 27.8541 53.9792C27.1026 53.9792 26.382 53.6807 25.8506 53.1493C25.3193 52.6179 25.0208 51.8973 25.0208 51.1458C25.0208 50.3944 25.3193 49.6737 25.8506 49.1424C26.382 48.611 27.1026 48.3125 27.8541 48.3125ZM39.4999 48.3125C40.2514 48.3125 40.972 48.611 41.5034 49.1424C42.0347 49.6737 42.3333 50.3944 42.3333 51.1458C42.3333 51.8973 42.0347 52.6179 41.5034 53.1493C40.972 53.6807 40.2514 53.9792 39.4999 53.9792C38.7485 53.9792 38.0278 53.6807 37.4965 53.1493C36.9651 52.6179 36.6666 51.8973 36.6666 51.1458C36.6666 50.3944 36.9651 49.6737 37.4965 49.1424C38.0278 48.611 38.7485 48.3125 39.4999 48.3125ZM51.1458 48.3125C51.8972 48.3125 52.6179 48.611 53.1492 49.1424C53.6806 49.6737 53.9791 50.3944 53.9791 51.1458C53.9791 51.8973 53.6806 52.6179 53.1492 53.1493C52.6179 53.6807 51.8972 53.9792 51.1458 53.9792C50.3943 53.9792 49.6736 53.6807 49.1423 53.1493C48.6109 52.6179 48.3124 51.8973 48.3124 51.1458C48.3124 50.3944 48.6109 49.6737 49.1423 49.1424C49.6736 48.611 50.3943 48.3125 51.1458 48.3125ZM27.8541 36.6667C28.6055 36.6667 29.3262 36.9652 29.8576 37.4965C30.3889 38.0279 30.6874 38.7486 30.6874 39.5C30.6874 40.2514 30.3889 40.9721 29.8576 41.5035C29.3262 42.0348 28.6055 42.3333 27.8541 42.3333C27.1026 42.3333 26.382 42.0348 25.8506 41.5035C25.3193 40.9721 25.0208 40.2514 25.0208 39.5C25.0208 38.7486 25.3193 38.0279 25.8506 37.4965C26.382 36.9652 27.1026 36.6667 27.8541 36.6667ZM39.4999 36.6667C40.2514 36.6667 40.972 36.9652 41.5034 37.4965C42.0347 38.0279 42.3333 38.7486 42.3333 39.5C42.3333 40.2514 42.0347 40.9721 41.5034 41.5035C40.972 42.0348 40.2514 42.3333 39.4999 42.3333C38.7485 42.3333 38.0278 42.0348 37.4965 41.5035C36.9651 40.9721 36.6666 40.2514 36.6666 39.5C36.6666 38.7486 36.9651 38.0279 37.4965 37.4965C38.0278 36.9652 38.7485 36.6667 39.4999 36.6667ZM51.1458 36.6667C51.8972 36.6667 52.6179 36.9652 53.1492 37.4965C53.6806 38.0279 53.9791 38.7486 53.9791 39.5C53.9791 40.2514 53.6806 40.9721 53.1492 41.5035C52.6179 42.0348 51.8972 42.3333 51.1458 42.3333C50.3943 42.3333 49.6736 42.0348 49.1423 41.5035C48.6109 40.9721 48.3124 40.2514 48.3124 39.5C48.3124 38.7486 48.6109 38.0279 49.1423 37.4965C49.6736 36.9652 50.3943 36.6667 51.1458 36.6667ZM27.8541 25.0208C28.6055 25.0208 29.3262 25.3193 29.8576 25.8507C30.3889 26.382 30.6874 27.1027 30.6874 27.8542C30.6874 28.6056 30.3889 29.3263 29.8576 29.8576C29.3262 30.389 28.6055 30.6875 27.8541 30.6875C27.1026 30.6875 26.382 30.389 25.8506 29.8576C25.3193 29.3263 25.0208 28.6056 25.0208 27.8542C25.0208 27.1027 25.3193 26.382 25.8506 25.8507C26.382 25.3193 27.1026 25.0208 27.8541 25.0208ZM39.4999 25.0208C40.2514 25.0208 40.972 25.3193 41.5034 25.8507C42.0347 26.382 42.3333 27.1027 42.3333 27.8542C42.3333 28.6056 42.0347 29.3263 41.5034 29.8576C40.972 30.389 40.2514 30.6875 39.4999 30.6875C38.7485 30.6875 38.0278 30.389 37.4965 29.8576C36.9651 29.3263 36.6666 28.6056 36.6666 27.8542C36.6666 27.1027 36.9651 26.382 37.4965 25.8507C38.0278 25.3193 38.7485 25.0208 39.4999 25.0208ZM51.1458 25.0208C51.8972 25.0208 52.6179 25.3193 53.1492 25.8507C53.6806 26.382 53.9791 27.1027 53.9791 27.8542C53.9791 28.6056 53.6806 29.3263 53.1492 29.8576C52.6179 30.389 51.8972 30.6875 51.1458 30.6875C50.3943 30.6875 49.6736 30.389 49.1423 29.8576C48.6109 29.3263 48.3124 28.6056 48.3124 27.8542C48.3124 27.1027 48.6109 26.382 49.1423 25.8507C49.6736 25.3193 50.3943 25.0208 51.1458 25.0208Z" fill="#FFA5AF" stroke="black" stroke-width="1.5"/>
</g>
<defs>
<clipPath id="clip0_35_1376">
<rect width="43" height="43" fill="white" transform="translate(18 18)"/>
</clipPath>
</defs>
</svg>
