<svg width="78" height="78" viewBox="0 0 78 78" fill="none" xmlns="http://www.w3.org/2000/svg">
<path d="M78 39C78 60.5391 60.5391 78 39 78C17.4609 78 0 60.5391 0 39C0 17.4609 17.4609 0 39 0C60.5391 0 78 17.4609 78 39Z" fill="white"/>
<path d="M30.625 25V55" stroke="black" stroke-width="2" stroke-linecap="round" stroke-linejoin="round"/>
<path d="M25 25.75V33.25C25 37 30.625 37 30.625 37C30.625 37 36.25 37 36.25 33.25V25.75" stroke="black" stroke-width="2" stroke-linecap="round" stroke-linejoin="round"/>
<path d="M49.375 37V55" stroke="black" stroke-width="2" stroke-linecap="round" stroke-linejoin="round"/>
<path d="M55 31C55 34.3137 52.4816 37 49.375 37C46.2684 37 43.75 34.3137 43.75 31C43.75 27.6863 46.2684 25 49.375 25C52.4816 25 55 27.6863 55 31Z" fill="#FFA5AF" stroke="black" stroke-width="2" stroke-linecap="round" stroke-linejoin="round"/>
</svg>
