<svg width="40" height="40" viewBox="0 0 40 40" fill="none" xmlns="http://www.w3.org/2000/svg">
<path d="M15.8334 25V27.5C15.8334 30.7217 13.2217 33.3333 10.0001 33.3333C6.77842 33.3333 4.16675 30.7217 4.16675 27.5V15.8333" stroke="black" stroke-width="2" stroke-linecap="round" stroke-linejoin="round"/>
<path d="M24.1667 25V27.5C24.1667 30.7217 26.7784 33.3333 30.0001 33.3333C33.2217 33.3333 35.8334 30.7217 35.8334 27.5V15.8333" stroke="black" stroke-width="2" stroke-linecap="round" stroke-linejoin="round"/>
<path d="M26.6667 6.66667H13.3334C8.2708 6.66667 4.16675 10.7707 4.16675 15.8333C4.16675 20.8959 8.2708 25 13.3334 25H26.6667C31.7294 25 35.8334 20.8959 35.8334 15.8333C35.8334 10.7707 31.7294 6.66667 26.6667 6.66667Z" fill="#FFA5AF" stroke="black" stroke-width="2"/>
<path d="M17.5002 15.8333H10.8335" stroke="white" stroke-width="2" stroke-linecap="round" stroke-linejoin="round"/>
<path d="M14.1667 12.5V19.1667" stroke="white" stroke-width="2" stroke-linecap="round" stroke-linejoin="round"/>
<path d="M30.0001 14.1667C30.0001 13.2462 29.2539 12.5 28.3334 12.5C27.4129 12.5 26.6667 13.2462 26.6667 14.1667C26.6667 15.0871 27.4129 15.8333 28.3334 15.8333C29.2539 15.8333 30.0001 15.0871 30.0001 14.1667Z" fill="white"/>
<path d="M26.6668 18.3333C26.6668 17.4129 25.9206 16.6667 25.0002 16.6667C24.0797 16.6667 23.3335 17.4129 23.3335 18.3333C23.3335 19.2538 24.0797 20 25.0002 20C25.9206 20 26.6668 19.2538 26.6668 18.3333Z" fill="white"/>
</svg>
