<svg width="78" height="78" viewBox="0 0 78 78" fill="none" xmlns="http://www.w3.org/2000/svg">
<circle cx="39" cy="39" r="39" fill="white"/>
<path d="M34.8334 44V46.5C34.8334 49.7217 32.2217 52.3333 29.0001 52.3333C25.7784 52.3333 23.1667 49.7217 23.1667 46.5V34.8333" stroke="black" stroke-width="2" stroke-linecap="round" stroke-linejoin="round"/>
<path d="M43.1667 44V46.5C43.1667 49.7217 45.7784 52.3333 49.0001 52.3333C52.2217 52.3333 54.8334 49.7217 54.8334 46.5V34.8333" stroke="black" stroke-width="2" stroke-linecap="round" stroke-linejoin="round"/>
<path d="M45.6667 25.6667H32.3334C27.2708 25.6667 23.1667 29.7707 23.1667 34.8333C23.1667 39.8959 27.2708 44 32.3334 44H45.6667C50.7294 44 54.8334 39.8959 54.8334 34.8333C54.8334 29.7707 50.7294 25.6667 45.6667 25.6667Z" fill="#FFA5AF" stroke="black" stroke-width="2"/>
<path d="M36.5002 34.8333H29.8335" stroke="white" stroke-width="2" stroke-linecap="round" stroke-linejoin="round"/>
<path d="M33.1667 31.5V38.1667" stroke="white" stroke-width="2" stroke-linecap="round" stroke-linejoin="round"/>
<path d="M49.0001 33.1667C49.0001 32.2462 48.2539 31.5 47.3334 31.5C46.4129 31.5 45.6667 32.2462 45.6667 33.1667C45.6667 34.0871 46.4129 34.8333 47.3334 34.8333C48.2539 34.8333 49.0001 34.0871 49.0001 33.1667Z" fill="white"/>
<path d="M45.6668 37.3333C45.6668 36.4129 44.9206 35.6667 44.0002 35.6667C43.0797 35.6667 42.3335 36.4129 42.3335 37.3333C42.3335 38.2538 43.0797 39 44.0002 39C44.9206 39 45.6668 38.2538 45.6668 37.3333Z" fill="white"/>
</svg>
