<svg width="40" height="40" viewBox="0 0 40 40" fill="none" xmlns="http://www.w3.org/2000/svg">
<path d="M20.0039 6.74219L5.55078 21.1836H9.30078V33.9063H15.3125V25C15.3125 24.1367 16.0117 23.4375 16.875 23.4375H23.125C23.9883 23.4375 24.6875 24.1367 24.6875 25V33.9063H30.6992V21.1836H34.4531L20.9063 7.64453L20.0039 6.74219ZM36.9766 23.2617C36.7422 23.4961 36.4648 23.6836 36.1641 23.8047C36.4648 23.6797 36.7422 23.4961 36.9766 23.2617ZM2.32812 21.9063C2.52344 23.0898 3.55469 23.9961 4.79297 23.9961H4.82812C3.58203 23.9961 2.52734 23.0977 2.32812 21.9063ZM2.29687 21.3945C2.30078 21.2734 2.31641 21.1563 2.33594 21.0391C2.3125 21.1523 2.30078 21.2734 2.29687 21.3945Z" fill="#FFA5AF"/>
<path d="M37.1484 19.9219C37.1484 19.918 37.1445 19.918 37.1445 19.9141L37.0742 19.832C37.0703 19.8281 37.0664 19.8203 37.0586 19.8164C37.0313 19.7852 37 19.7539 36.9727 19.7227L21.8789 4.64063L20.8672 3.62891C20.6367 3.39992 20.3249 3.27139 20 3.27139C19.6751 3.27139 19.3633 3.39992 19.1328 3.62891L3.02734 19.7266C2.73639 20.016 2.52166 20.373 2.40234 20.7656L2.37891 20.8477L2.36719 20.8906L2.35547 20.9375C2.34766 20.9648 2.34375 20.9922 2.33984 21.0195C2.33984 21.0234 2.33984 21.0313 2.33594 21.0352C2.3125 21.1523 2.30078 21.2695 2.29688 21.3906V21.5195C2.29688 21.5391 2.29688 21.5586 2.30078 21.5781C2.30078 21.5977 2.30078 21.6133 2.30469 21.6328C2.30469 21.6523 2.30859 21.6719 2.30859 21.6914C2.30859 21.7148 2.3125 21.7383 2.31641 21.7617C2.31641 21.7734 2.32031 21.7852 2.32031 21.7969L2.33203 21.8945V21.8984C2.53125 23.0898 3.58984 23.9883 4.83203 23.9883H6.49219V36.7188H33.5117V23.9961H35.207C35.543 23.9961 35.8672 23.9297 36.1641 23.8047C36.4609 23.6797 36.7383 23.4961 36.9766 23.2617C37.2093 23.0297 37.3937 22.7539 37.5191 22.4501C37.6445 22.1464 37.7084 21.8208 37.707 21.4922C37.707 20.918 37.5117 20.3672 37.1484 19.9219ZM22.1875 33.9063H17.8125V25.9375H22.1875V33.9063ZM30.6992 21.1836V33.9063H24.6875V25C24.6875 24.1367 23.9883 23.4375 23.125 23.4375H16.875C16.0117 23.4375 15.3125 24.1367 15.3125 25V33.9063H9.30078V21.1836H5.55078L20.0039 6.74219L20.9063 7.64454L34.4531 21.1836H30.6992Z" fill="#111111"/>
</svg>
