<svg width="40" height="40" viewBox="0 0 40 40" fill="none" xmlns="http://www.w3.org/2000/svg">
<circle cx="20" cy="20" r="20" fill="#FFA5AF"/>
<g clip-path="url(#clip0_522_283)">
<path d="M29.7498 23.25V26.5H32.9998V28.6667H29.7498V31.9167H27.5832V28.6667H24.3332V26.5H27.5832V23.25H29.7498ZM29.7585 10.25C30.3522 10.25 30.8332 10.7321 30.8332 11.3257V21.4538C30.1373 21.208 29.4045 21.0827 28.6665 21.0833V12.4167H11.3332L11.3343 27.5833L21.4006 17.5159C21.5869 17.329 21.835 17.2166 22.0984 17.1999C22.3617 17.1831 22.6221 17.2631 22.8306 17.4249L22.9324 17.517L26.7728 21.3628C25.9329 21.6188 25.1534 22.0422 24.4815 22.6075C23.8096 23.1729 23.2592 23.8684 22.8634 24.6523C22.4675 25.4361 22.2346 26.292 22.1785 27.1683C22.1224 28.0446 22.2444 28.9232 22.537 29.7511L10.2412 29.75C9.95605 29.7497 9.68271 29.6362 9.4812 29.4345C9.27969 29.2328 9.1665 28.9594 9.1665 28.6742V11.3257C9.16849 11.0412 9.28231 10.7689 9.48339 10.5677C9.68447 10.3664 9.95667 10.2523 10.2412 10.25H29.7585ZM15.6665 14.5833C16.2411 14.5833 16.7922 14.8116 17.1986 15.2179C17.6049 15.6243 17.8332 16.1754 17.8332 16.75C17.8332 17.3246 17.6049 17.8757 17.1986 18.2821C16.7922 18.6884 16.2411 18.9167 15.6665 18.9167C15.0919 18.9167 14.5408 18.6884 14.1344 18.2821C13.7281 17.8757 13.4998 17.3246 13.4998 16.75C13.4998 16.1754 13.7281 15.6243 14.1344 15.2179C14.5408 14.8116 15.0919 14.5833 15.6665 14.5833Z" fill="white"/>
</g>
<defs>
<clipPath id="clip0_522_283">
<rect width="26" height="26" fill="white" transform="translate(7 7)"/>
</clipPath>
</defs>
</svg>
