<svg width="78" height="78" viewBox="0 0 78 78" fill="none" xmlns="http://www.w3.org/2000/svg">
<circle cx="39" cy="39" r="39" fill="white"/>
<path d="M44 47.75C44 46.1392 45.3058 44.8333 46.9167 44.8333H53.1667V47.6667C53.1667 49.3235 51.8235 50.6667 50.1667 50.6667H46.9167C45.3058 50.6667 44 49.3608 44 47.75Z" fill="#FFA5AF" stroke="black" stroke-width="2" stroke-linejoin="round"/>
<path d="M24 51.0833C24 49.4725 25.3058 48.1667 26.9167 48.1667H32.3333V51C32.3333 52.6568 30.9902 54 29.3333 54H26.9167C25.3058 54 24 52.6942 24 51.0833Z" fill="#FFA5AF" stroke="black" stroke-width="2" stroke-linejoin="round"/>
<path d="M32.3333 34.0367L53.1666 29.1042" stroke="black" stroke-width="2" stroke-linecap="round" stroke-linejoin="round"/>
<path d="M32.3333 50.6667V27.3333L53.1666 22.3333V47.077" stroke="black" stroke-width="2" stroke-linecap="round" stroke-linejoin="round"/>
</svg>
