<svg xmlns="http://www.w3.org/2000/svg" width="40" height="40" viewBox="0 0 40 40" fill="none">
  <mask id="mask0_342_283" style="mask-type:luminance" maskUnits="userSpaceOnUse" x="2" y="1" width="36" height="37">
    <path d="M8.3975 11.1925C12.5392 6.5592 19.7392 8.59587 22.5 10.0009C23.8808 9.47337 27.6642 8.8692 30.15 10.5542C33.2558 12.6609 37.1692 18.2542 33.545 26.1534C30.6458 32.4734 23.075 35.1309 20.3133 35.8334C18.2425 34.9559 13.6917 33.1934 8.83833 28.7934C4.43833 24.8034 3.22083 16.9859 8.3975 11.1934V11.1925Z" fill="#555555" stroke="white" stroke-width="4" stroke-linejoin="round"/>
    <path d="M22.5 10C20.8967 10.625 17.69 11.875 15.9417 15.625C14.0617 19.655 15.5042 23.125 15.9417 25" stroke="white" stroke-width="4" stroke-linecap="round" stroke-linejoin="round"/>
    <path d="M17.5 3.33325C17.7775 3.47242 19.5833 3.74992 20 5.41659C20.3642 6.87409 19.7225 7.77742 19.5833 8.74992" stroke="white" stroke-width="4" stroke-linecap="round"/>
    <path d="M23.7325 9.44084C23.549 9.43794 23.3686 9.39407 23.2043 9.31244C23.04 9.23082 22.896 9.11351 22.7829 8.96908C22.6698 8.82466 22.5904 8.65678 22.5506 8.47772C22.5107 8.29866 22.5113 8.11295 22.5525 7.93418C22.7775 6.86168 23.2875 5.39751 24.4416 4.49334C25.595 3.59001 27.1383 3.44418 28.2333 3.48251C28.4167 3.48532 28.5972 3.52908 28.7615 3.61061C28.9258 3.69213 29.0698 3.80935 29.183 3.95369C29.2962 4.09803 29.3757 4.26584 29.4157 4.44485C29.4557 4.62387 29.4551 4.80956 29.4141 4.98834C29.1891 6.06168 28.6783 7.52584 27.525 8.43001C26.3716 9.33334 24.8283 9.47834 23.7325 9.44084Z" stroke="white" stroke-width="4"/>
  </mask>
  <g mask="url(#mask0_342_283)">
    <path d="M0 0H40V40H0V0Z" fill="#FFA5AF"/>
  </g>
</svg>