<svg width="78" height="78" viewBox="0 0 78 78" fill="none" xmlns="http://www.w3.org/2000/svg">
<circle cx="39" cy="39" r="39" fill="white"/>
<path d="M33.8612 28.0278L32.25 24C30.5046 24.6713 26.7723 28.6722 27.4167 34.4722" stroke="black" stroke-width="2" stroke-linecap="round" stroke-linejoin="round"/>
<path d="M45.1389 28.0278L46.7502 24C48.4956 24.6713 52.2279 28.6722 51.5834 34.4722" stroke="black" stroke-width="2" stroke-linecap="round" stroke-linejoin="round"/>
<path d="M54 42.9306C54 50.7163 47.5081 54.6111 39.5 54.6111C31.4919 54.6111 25 50.7163 25 42.9306C25 35.1449 31.4919 27.2222 39.5 27.2222C47.5081 27.2222 54 35.1449 54 42.9306Z" fill="#FFA5AF" stroke="black" stroke-width="2"/>
<path d="M36.2779 35.2778C37.1677 35.2778 37.889 34.5565 37.889 33.6667C37.889 32.7769 37.1677 32.0556 36.2779 32.0556C35.3881 32.0556 34.6667 32.7769 34.6667 33.6667C34.6667 34.5565 35.3881 35.2778 36.2779 35.2778Z" fill="black"/>
<path d="M42.7222 35.2778C43.612 35.2778 44.3333 34.5565 44.3333 33.6667C44.3333 32.7769 43.612 32.0556 42.7222 32.0556C41.8324 32.0556 41.1111 32.7769 41.1111 33.6667C41.1111 34.5565 41.8324 35.2778 42.7222 35.2778Z" fill="black"/>
<path d="M39.5001 40.9167C39.5001 42.2514 39.9029 45.3472 37.0834 45.3472C35.7487 45.3472 34.6667 44.2653 34.6667 42.9306" stroke="black" stroke-width="2" stroke-linecap="round" stroke-linejoin="round"/>
<path d="M39.5199 40.9167C39.5199 42.2514 39.1171 45.3472 41.9366 45.3472C43.2713 45.3472 44.3532 44.2653 44.3532 42.9306" stroke="black" stroke-width="2" stroke-linecap="round" stroke-linejoin="round"/>
<path d="M41.1111 40.7153C41.1111 41.2714 39.5 42.125 39.5 42.125C39.5 42.125 37.8889 41.2714 37.8889 40.7153C37.8889 40.1591 38.2917 39.7083 39.5 39.7083C40.7084 39.7083 41.1111 40.1591 41.1111 40.7153Z" stroke="black" stroke-width="2" stroke-linejoin="round"/>
</svg>
