<svg width="40" height="40" viewBox="0 0 40 40" fill="none" xmlns="http://www.w3.org/2000/svg">
<path d="M14.0268 7.49387L12.3854 3C10.6074 3.74898 6.8053 8.21289 7.46179 14.6841" stroke="black" stroke-width="2" stroke-linecap="round" stroke-linejoin="round"/>
<path d="M25.5154 7.49387L27.1568 3C28.9348 3.74898 32.7369 8.21289 32.0804 14.6841" stroke="black" stroke-width="2" stroke-linecap="round" stroke-linejoin="round"/>
<path d="M34.5423 24.1212C34.5423 32.8079 27.929 37.1534 19.7712 37.1534C11.6133 37.1534 5 32.8079 5 24.1212C5 15.4345 11.6133 6.5951 19.7712 6.5951C27.929 6.5951 34.5423 15.4345 34.5423 24.1212Z" fill="#FFA5AF" stroke="black" stroke-width="2"/>
<path d="M16.4887 15.5828C17.3951 15.5828 18.1299 14.7781 18.1299 13.7853C18.1299 12.7925 17.3951 11.9877 16.4887 11.9877C15.5822 11.9877 14.8474 12.7925 14.8474 13.7853C14.8474 14.7781 15.5822 15.5828 16.4887 15.5828Z" fill="black"/>
<path d="M23.0538 15.5828C23.9603 15.5828 24.6951 14.7781 24.6951 13.7853C24.6951 12.7925 23.9603 11.9877 23.0538 11.9877C22.1474 11.9877 21.4126 12.7925 21.4126 13.7853C21.4126 14.7781 22.1474 15.5828 23.0538 15.5828Z" fill="black"/>
<path d="M19.7711 21.8743C19.7711 23.3634 20.1814 26.8175 17.3093 26.8175C15.9496 26.8175 14.8474 25.6104 14.8474 24.1212" stroke="black" stroke-width="2" stroke-linecap="round" stroke-linejoin="round"/>
<path d="M19.7913 21.8743C19.7913 23.3634 19.3809 26.8175 22.2531 26.8175C23.6128 26.8175 24.715 25.6104 24.715 24.1212" stroke="black" stroke-width="2" stroke-linecap="round" stroke-linejoin="round"/>
<path d="M21.4124 21.6496C21.4124 22.2701 19.7711 23.2224 19.7711 23.2224C19.7711 23.2224 18.1299 22.2701 18.1299 21.6496C18.1299 21.0291 18.5402 20.5261 19.7711 20.5261C21.0021 20.5261 21.4124 21.0291 21.4124 21.6496Z" stroke="black" stroke-width="2" stroke-linejoin="round"/>
</svg>
