<svg width="78" height="78" viewBox="0 0 78 78" fill="none" xmlns="http://www.w3.org/2000/svg">
<circle cx="39" cy="39" r="39" fill="white"/>
<path d="M29.5 30.8571H24.0715C22.5724 30.8571 21.3572 32.0724 21.3572 33.5714V44.4286C21.3572 45.9276 22.5724 47.1429 24.0715 47.1429H29.5C30.9991 47.1429 32.2143 45.9276 32.2143 44.4286V33.5714C32.2143 32.0724 30.9991 30.8571 29.5 30.8571Z" fill="#FFA5AF" stroke="black" stroke-width="2" stroke-linecap="round" stroke-linejoin="round"/>
<path d="M53.9285 30.8571H48.4999C47.0009 30.8571 45.7856 32.0724 45.7856 33.5714V44.4286C45.7856 45.9276 47.0009 47.1429 48.4999 47.1429H53.9285C55.4276 47.1429 56.6428 45.9276 56.6428 44.4286V33.5714C56.6428 32.0724 55.4276 30.8571 53.9285 30.8571Z" fill="#FFA5AF" stroke="black" stroke-width="2" stroke-linecap="round" stroke-linejoin="round"/>
<path d="M32.2144 39H45.7858" stroke="black" stroke-width="2" stroke-linecap="round" stroke-linejoin="round"/>
</svg>
