<svg width="40" height="40" viewBox="0 0 40 40" fill="none" xmlns="http://www.w3.org/2000/svg">
<path d="M9.9999 11.4286H4.28561C2.70765 11.4286 1.42847 12.7078 1.42847 14.2857V25.7143C1.42847 27.2922 2.70765 28.5714 4.28561 28.5714H9.9999C11.5779 28.5714 12.857 27.2922 12.857 25.7143V14.2857C12.857 12.7078 11.5779 11.4286 9.9999 11.4286Z" fill="#FFA5AF" stroke="black" stroke-width="2" stroke-linecap="round" stroke-linejoin="round"/>
<path d="M35.7143 11.4286H30C28.422 11.4286 27.1428 12.7078 27.1428 14.2857V25.7143C27.1428 27.2922 28.422 28.5714 30 28.5714H35.7143C37.2922 28.5714 38.5714 27.2922 38.5714 25.7143V14.2857C38.5714 12.7078 37.2922 11.4286 35.7143 11.4286Z" fill="#FFA5AF" stroke="black" stroke-width="2" stroke-linecap="round" stroke-linejoin="round"/>
<path d="M12.8569 20H27.1426" stroke="black" stroke-width="2" stroke-linecap="round" stroke-linejoin="round"/>
</svg>
